<?xml version="1.0" encoding="utf-8"?>
<!-- Generator: Adobe Illustrator 21.0.2, SVG Export Plug-In . SVG Version: 6.00 Build 0)  -->
<svg version="1.1" xmlns="http://www.w3.org/2000/svg" xmlns:xlink="http://www.w3.org/1999/xlink" x="0px" y="0px" width="2272px"
	 height="1872px" viewBox="0 0 2272 1872" enable-background="new 0 0 2272 1872" xml:space="preserve">
<g id="Layer_2">
</g>
<g id="Layer_1">
	<g>
		<g>
			<path fill="#027878" d="M479.105,653.456c-93.378-85.702-272.945-49.714-272.945-49.714l97.205-204.491
				c5.098,1.89,10.037,3.887,14.825,5.961l8.27-17.523c-17.931-9.69-31.061-14.923-31.061-14.923L174.501,626.843
				C352.189,579.997,479.105,653.456,479.105,653.456z"/>
			<path fill="#027878" d="M783.708,626.843L662.81,372.765c0,0-13.129,5.234-31.061,14.923l8.27,17.523
				c4.789-2.075,9.728-4.071,14.825-5.961l97.205,204.491c0,0-179.568-35.987-272.945,49.714
				C479.105,653.456,606.021,579.997,783.708,626.843z"/>
		</g>
		<path fill="#C12428" d="M208.009,648.324c0.634-0.127,64.224-12.615,133.98-4.644c40.51,4.63,75.001,15.168,102.516,31.32
			c7.396,4.342,14.293,9.102,20.685,14.271c-17.234,17.918-30.152,39.264-38.577,63.857l17.809,6.101
			c7.553-22.048,19.168-41.178,34.683-57.224c15.688,16.225,27.387,35.605,34.936,57.968l17.836-6.019
			c-8.418-24.94-21.43-46.562-38.856-64.678c6.462-5.227,13.438-10.037,20.926-14.417c27.452-16.058,61.829-26.544,102.176-31.167
			c69.655-7.979,133.445,4.506,134.078,4.632l33.032,6.62l3.699-18.458l-33.032-6.62c-2.699-0.541-66.945-13.156-139.476-4.927
			c-43.053,4.884-79.987,16.172-109.778,33.552c-9.205,5.37-17.72,11.324-25.544,17.839c-7.689-6.403-16.043-12.266-25.067-17.563
			c-29.794-17.49-66.773-28.858-109.908-33.789c-72.667-8.309-137.11,4.346-139.817,4.888l-32.373,6.488l3.699,18.458
			L208.009,648.324z"/>
		<g>
			<path fill="#F26227" d="M479.105,612.652c-48.771-47.915-196.794-66.238-196.794-66.238l78.718-168.559
				c76.151,28.236,118.077,79.574,118.077,79.574C456.003,392.401,353.063,351.37,353.063,351.37L248.085,573.794
				C333.648,562.671,479.105,612.652,479.105,612.652z"/>
			<path fill="#F26227" d="M597.182,377.855l78.718,168.559c0,0-148.024,18.323-196.794,66.238c0,0,145.457-49.981,231.02-38.858
				L605.146,351.37c0,0-102.94,41.031-126.042,106.059C479.105,457.429,521.031,406.091,597.182,377.855z"/>
		</g>
		<g>
			<path fill="#F9B52C" d="M382.133,408.29L329.89,526.357c65.501,4.42,149.215,63.137,149.215,63.137
				c-23.733-49.878-127.109-79.927-127.109-79.927l35.718-85.037c53.364,17.314,91.391,53.846,91.391,53.846
				C462.916,438.501,382.133,408.29,382.133,408.29z"/>
			<path fill="#F9B52C" d="M606.214,509.567c0,0-103.376,30.049-127.109,79.927c0,0,83.713-58.718,149.215-63.137L576.077,408.29
				c0,0-80.783,30.211-96.972,70.086c0,0,38.026-36.531,91.391-53.846L606.214,509.567z"/>
		</g>
	</g>
	<g>
		<path fill="#78BC43" d="M1349.185,343.253h-122.509l-86.627-86.627l-86.627,86.627H930.912v122.509l-86.627,86.627l86.627,86.627
			v122.51h122.509l86.627,86.627l86.627-86.627h122.509v-122.51l86.627-86.627l-86.627-86.627V343.253z M1414.599,552.389
			l-80.414,80.414v113.723h-113.722l-80.414,80.414l-80.414-80.414H945.913V632.803l-80.414-80.414l80.414-80.414V358.253h113.722
			l80.414-80.414l80.414,80.414h113.722v113.722L1414.599,552.389z"/>
		<path fill="#027878" d="M1327.185,365.253h-109.622l-77.514-77.515l-77.514,77.515H952.913v109.621l-77.514,77.515l77.514,77.515
			v109.622h109.622l77.514,77.515l77.514-77.515h109.622V629.903l77.514-77.515l-77.514-77.515V365.253z M1070.048,725.826v-23.171
			l70-34.947l66.557,33.25v28.312l-66.556,66.557L1070.048,725.826z M1383.486,552.389l-71.301,71.302v100.835h-90.58v-32.841
			l-64.747-32.345c9.008-4.496,21.826-10.905,36.641-18.316l0.589-0.294l0,0c52.461-26.246,129.439-64.809,150.956-75.589
			l7.91-3.962l-54.088-74.362h-18.549l50.099,68.876c-41.644,20.863-101.304,50.742-143.362,71.785l-47.005,23.466l-65.905-32.924
			c-39.756-19.898-88.738-44.43-124.462-62.327l50.099-68.876h-18.549l-54.088,74.362l7.91,3.962
			c27.694,13.875,147.264,73.775,188.181,94.198l-68.186,34.041v31.147h-87.136V623.69l-71.301-71.302l71.301-71.302V380.253
			h100.835l71.301-71.302l71.301,71.302h100.835v100.834L1383.486,552.389z"/>
		<path fill="#C12428" d="M1140.049,634.019l181.06-80.156l-45.206-67.048l-19.344-16.02l50.503,77.39l-17.233,1.144
			c-63.901,4.246-144.904,57.811-145.714,58.351l-4.066,2.711l-4.066-2.711c-0.811-0.541-81.814-54.106-145.714-58.351
			l-17.233-1.144l50.503-77.39l-19.344,16.02l-45.206,67.048L1140.049,634.019z"/>
		<path fill="#F9B52C" d="M1140.049,597.966c0,0,82.692-58.862,149.323-63.585l-42.083-61.3c0,0-67.011-17.447-107.239,44.077
			c-40.228-61.524-107.239-44.077-107.239-44.077l-42.083,61.3C1057.357,539.104,1140.049,597.966,1140.049,597.966z"/>
		<polygon fill="#027878" points="1158.029,376.293 1150.307,400.059 1125.319,400.059 1145.535,414.746 1137.813,438.511 
			1158.029,423.823 1178.244,438.511 1170.522,414.746 1190.738,400.059 1165.75,400.059 		"/>
		<path fill="#F9B52C" d="M1116.564,409.323c0-20.891,14.357-38.424,33.741-43.284c-3.81-0.869-7.77-1.343-11.843-1.343
			c-29.299,0-53.05,23.751-53.05,53.05s23.751,53.05,53.05,53.05c17.507,0,33.027-8.484,42.689-21.56
			c-6.008,3.011-12.783,4.715-19.96,4.715C1136.545,453.95,1116.564,433.97,1116.564,409.323z"/>
	</g>
	<path fill="#027878" d="M941.435,1146.322l0.046,0.004c-0.029,0.316-0.057,0.658-0.086,0.982c-0.017,0.402-0.042,0.804-0.049,1.208
		c-0.004,0.232-0.049,0.436-0.112,0.627c-2.629,31.455-3.949,94.851-3.949,123.342c0,0.721,0.014,1.44,0.016,2.161
		c-0.01,2.041-0.016,3.968-0.016,5.751c0,34.972,2.052,69.812,6.099,103.555c0.786,6.556,6.364,11.376,12.99,11.139
		c22.943-0.714,46.37-1.2,69.024-1.67c38.543-0.799,78.366-1.624,117.506-3.604c0.22-0.011,1.324,1.596,1.531,1.822
		c0.549,0.601,1.123,1.179,1.723,1.729c1.192,1.095,2.483,2.082,3.851,2.948c2.89,1.828,6.102,3.091,9.416,3.907
		c3.63,0.893,7.361,1.426,11.101,1.48c8.462,0.122,17.575-1.263,24.598-6.305c0.576-0.414,1.135-0.849,1.676-1.307
		c1.505-1.274,2.867-2.715,4.073-4.274c39.14,1.979,78.962,2.806,117.505,3.604c22.655,0.47,46.082,0.956,69.025,1.67
		c6.612,0.242,12.203-4.583,12.99-11.138c4.047-33.743,6.099-68.584,6.099-103.556c0-1.783-0.006-3.711-0.016-5.75
		c0.002-0.721,0.016-1.441,0.016-2.162c0-28.434-1.315-91.644-3.934-123.164c-0.244-0.305-1.055-9.687-1.944-13.882l-3.727,0.365
		c-0.68-0.491-1.395-0.94-2.174-1.296c-2.021-0.925-4.153-1.758-6.411-2.517v-3.227c0-1.766-0.848-3.425-2.28-4.459
		c-15.208-10.983-25.676-28.202-25.78-28.374c-0.025-0.042-0.059-0.077-0.085-0.118c-0.11-0.173-0.23-0.339-0.359-0.5
		c-0.052-0.064-0.101-0.128-0.155-0.19c-0.16-0.181-0.332-0.353-0.516-0.513c-0.021-0.018-0.04-0.04-0.061-0.058
		c-0.179-0.15-0.368-0.291-0.568-0.418c-0.026-0.017-0.055-0.029-0.081-0.045c-0.071-0.044-0.144-0.08-0.217-0.12
		c-0.167-0.093-0.337-0.178-0.511-0.253c-0.081-0.035-0.161-0.067-0.244-0.098c-0.187-0.07-0.377-0.128-0.57-0.176
		c-0.068-0.017-0.135-0.039-0.203-0.053c-0.262-0.056-0.527-0.095-0.794-0.111c-0.043-0.003-0.086,0-0.13-0.001
		c-0.227-0.009-0.455-0.004-0.682,0.015c-0.083,0.007-0.165,0.018-0.247,0.029c-0.203,0.026-0.403,0.065-0.603,0.114
		c-0.051,0.013-0.103,0.015-0.154,0.029c-0.025,0.007-0.047,0.019-0.072,0.026c-0.256,0.075-0.51,0.163-0.756,0.276
		c-6.686,3.072-13.66,4.565-21.321,4.565c-13.404,0-26.695-4.439-40.767-9.139c-15.287-5.107-31.095-10.386-48.425-10.386
		c-30.917,0-56.619,16.024-70.831,43.479c-14.212-27.455-39.914-43.479-70.831-43.479c-17.33,0-33.138,5.279-48.425,10.386
		c-14.072,4.699-27.363,9.139-40.767,9.139c-7.661,0-14.636-1.493-21.322-4.565c-0.251-0.115-0.508-0.204-0.769-0.279
		c-0.019-0.005-0.036-0.015-0.056-0.021c-0.041-0.011-0.082-0.013-0.123-0.023c-0.218-0.055-0.437-0.097-0.658-0.125
		c-0.069-0.008-0.137-0.018-0.206-0.024c-0.253-0.022-0.507-0.03-0.76-0.017c-0.018,0.001-0.036-0.001-0.054,0
		c-0.279,0.017-0.555,0.057-0.829,0.116c-0.044,0.01-0.086,0.023-0.13,0.034c-0.221,0.053-0.438,0.12-0.652,0.201
		c-0.063,0.024-0.126,0.049-0.188,0.075c-0.197,0.083-0.39,0.179-0.578,0.286c-0.054,0.031-0.11,0.058-0.163,0.091
		c-0.032,0.019-0.066,0.034-0.098,0.054c-0.203,0.13-0.394,0.272-0.576,0.425c-0.002,0.001-0.003,0.003-0.005,0.005
		c-0.207,0.174-0.394,0.366-0.571,0.566c-0.049,0.056-0.095,0.115-0.142,0.174c-0.133,0.163-0.255,0.333-0.368,0.51
		c-0.026,0.041-0.059,0.075-0.084,0.116c-0.104,0.172-10.571,17.391-25.78,28.374c-1.432,1.034-2.28,2.693-2.28,4.459v3.227
		c-2.258,0.758-4.39,1.591-6.41,2.516c-0.779,0.357-1.495,0.806-2.175,1.297l-3.862-0.379
		C942.302,1139.032,941.668,1142.644,941.435,1146.322z M1199.091,1370.795c10.328-11.266,22.007-16.743,36.103-17.052
		c17.708-0.405,38.962,7.341,59.236,15.291c5.445,2.136,10.798,3.882,16.013,5.306
		C1273.76,1373.574,1236.072,1372.711,1199.091,1370.795z M1385.414,1376.014c0.121-0.066,0.242-0.132,0.357-0.206
		c0.104-0.067,0.203-0.14,0.302-0.213c0.103-0.077,0.205-0.153,0.302-0.237c0.098-0.084,0.191-0.173,0.283-0.264
		c0.086-0.085,0.171-0.171,0.252-0.261c0.089-0.1,0.171-0.204,0.252-0.31c0.071-0.093,0.141-0.186,0.206-0.283
		c0.076-0.113,0.145-0.23,0.213-0.349c0.056-0.1,0.111-0.2,0.161-0.303c0.061-0.126,0.115-0.254,0.167-0.385
		c0.041-0.104,0.081-0.208,0.116-0.316c0.045-0.137,0.081-0.276,0.115-0.417c0.016-0.064,0.04-0.126,0.053-0.191
		c0.009-0.046,0.01-0.093,0.018-0.139c0.025-0.139,0.041-0.279,0.055-0.421c0.012-0.119,0.022-0.237,0.025-0.357
		c0.002-0.059,0.013-0.116,0.013-0.175v-227.467c0.624,0.256,1.238,0.519,1.836,0.792c0.605,0.276,1.017,0.818,1.075,1.414
		c2.849,29.265,4.279,96.912,4.279,126.56c0,34.535-2.026,68.935-6.021,102.245c-0.1,0.842-0.849,1.448-1.726,1.453
		c-0.83-0.026-1.665-0.049-2.496-0.075C1385.307,1376.08,1385.358,1376.044,1385.414,1376.014z M1361.03,1115.597
		c4.309,5.137,9.829,10.913,16.273,15.918v227.305c-0.296-0.293-0.594-0.592-0.897-0.898c-0.011-0.011-0.021-0.022-0.032-0.032
		c-0.62-0.628-1.255-1.286-1.898-1.965c-0.122-0.128-0.244-0.259-0.366-0.389c-0.535-0.57-1.076-1.158-1.619-1.76
		c-0.25-0.277-0.5-0.559-0.751-0.842c-0.423-0.477-0.845-0.964-1.268-1.459c-0.383-0.449-0.766-0.903-1.147-1.366
		c-0.293-0.355-0.584-0.714-0.875-1.077c-0.513-0.64-1.023-1.285-1.525-1.946c-0.158-0.208-0.313-0.421-0.47-0.631
		c-0.549-0.737-1.092-1.481-1.621-2.241c-0.108-0.154-0.212-0.312-0.319-0.467c-0.56-0.817-1.109-1.644-1.636-2.484
		c-0.074-0.118-0.145-0.237-0.219-0.355c-0.543-0.877-1.068-1.763-1.565-2.66c-0.023-0.042-0.045-0.084-0.068-0.126V1115.597z
		 M1370.714,1367.788c-14.462,1.85-42.007,2.872-72.268-8.994c-22.197-8.705-43.757-16.468-63.494-16.049
		c-20.476,0.451-36.571,9.536-50.446,28.541h-4.415c11.967-25.659,34.885-40.73,62.63-40.73c5.828,0,11.572,0.702,17.238,1.834
		c9.443,1.887,18.669,4.968,27.702,7.985c14.286,4.771,29.059,9.705,44.251,9.705c7.52,0,14.511-1.196,21.232-3.644
		C1358.423,1355.031,1365.312,1362.548,1370.714,1367.788z M1177.39,1137.01c10.97-29.579,35.328-47.202,65.331-47.202
		c15.542,0,30.487,4.991,44.94,9.819c14.287,4.771,29.06,9.705,44.252,9.705c6.365,0,12.352-0.857,18.118-2.604v229.114
		c-0.421,0.16-0.844,0.315-1.268,0.462c-0.249,0.086-0.495,0.18-0.745,0.263c-0.789,0.261-1.582,0.503-2.382,0.722
		c-0.172,0.047-0.346,0.085-0.518,0.13c-0.64,0.168-1.282,0.327-1.929,0.469c-0.292,0.064-0.586,0.119-0.88,0.178
		c-0.538,0.107-1.077,0.21-1.621,0.3c-0.32,0.053-0.642,0.102-0.964,0.149c-0.535,0.078-1.072,0.147-1.613,0.208
		c-0.319,0.037-0.638,0.073-0.96,0.104c-0.584,0.055-1.173,0.097-1.765,0.134c-0.278,0.017-0.554,0.04-0.834,0.053
		c-0.872,0.041-1.75,0.065-2.64,0.065c-11.728,0-23.371-3.399-35.525-7.397c-1.736-0.571-3.483-1.154-5.242-1.742
		c-15.287-5.106-31.095-10.386-48.425-10.386c-0.996,0-1.985,0.021-2.971,0.055c-0.302,0.01-0.602,0.026-0.902,0.039
		c-0.702,0.031-1.4,0.069-2.096,0.117c-0.321,0.022-0.641,0.044-0.96,0.069c-0.755,0.06-1.505,0.131-2.252,0.211
		c-0.22,0.023-0.441,0.042-0.66,0.067c-0.952,0.109-1.898,0.235-2.839,0.376c-0.238,0.036-0.474,0.078-0.711,0.116
		c-0.712,0.113-1.42,0.234-2.124,0.365c-0.313,0.059-0.626,0.12-0.938,0.182c-0.66,0.131-1.315,0.271-1.968,0.419
		c-0.282,0.063-0.566,0.124-0.846,0.191c-0.907,0.215-1.81,0.441-2.704,0.686c-0.08,0.022-0.159,0.047-0.239,0.07
		c-0.818,0.227-1.629,0.469-2.435,0.722c-0.289,0.091-0.576,0.187-0.864,0.28c-0.612,0.2-1.22,0.407-1.825,0.621
		c-0.297,0.106-0.595,0.211-0.89,0.32c-0.671,0.248-1.337,0.505-1.998,0.771c-0.195,0.078-0.393,0.152-0.588,0.232
		c-0.839,0.344-1.67,0.705-2.493,1.078c-0.237,0.108-0.471,0.222-0.708,0.331c-0.6,0.28-1.197,0.566-1.789,0.861
		c-0.288,0.143-0.574,0.289-0.86,0.436c-0.569,0.293-1.132,0.593-1.693,0.901c-0.251,0.137-0.503,0.271-0.752,0.411
		c-0.784,0.441-1.562,0.894-2.33,1.362c-0.125,0.077-0.248,0.158-0.373,0.235c-0.652,0.403-1.298,0.816-1.937,1.24
		c-0.259,0.171-0.514,0.347-0.771,0.521c-0.517,0.352-1.03,0.71-1.538,1.074c-0.257,0.184-0.514,0.368-0.768,0.555
		c-0.58,0.427-1.154,0.864-1.723,1.309c-0.155,0.121-0.313,0.238-0.468,0.361c-0.707,0.561-1.404,1.137-2.093,1.725
		c-0.209,0.178-0.413,0.362-0.62,0.542c-0.494,0.431-0.985,0.868-1.469,1.312c-0.238,0.218-0.475,0.439-0.711,0.661
		c-0.478,0.45-0.95,0.908-1.418,1.371c-0.199,0.196-0.4,0.39-0.596,0.589c-0.645,0.652-1.282,1.316-1.908,1.994
		c-0.116,0.125-0.227,0.256-0.342,0.382c-0.516,0.567-1.026,1.142-1.528,1.726c-0.205,0.239-0.407,0.481-0.61,0.723
		c-0.421,0.501-0.836,1.009-1.247,1.522c-0.196,0.246-0.393,0.49-0.587,0.738c-0.49,0.628-0.972,1.265-1.446,1.91
		c-0.092,0.125-0.186,0.246-0.277,0.371c-0.497,0.683-0.985,1.375-1.465,2.078V1137.01z M1033.336,1374.34
		c5.215-1.424,10.568-3.17,16.013-5.306c20.274-7.95,41.546-15.693,59.236-15.291c14.096,0.31,25.775,5.786,36.103,17.052
		C1107.707,1372.711,1070.019,1373.574,1033.336,1374.34z M993.749,1106.727c5.766,1.747,11.753,2.604,18.118,2.604
		c15.192,0,29.965-4.933,44.251-9.705c14.453-4.828,29.399-9.819,44.941-9.819c30.003,0,54.361,17.623,65.331,47.202v216.778
		c-0.479-0.702-0.967-1.394-1.464-2.077c-0.094-0.129-0.192-0.254-0.287-0.383c-0.471-0.641-0.95-1.274-1.437-1.897
		c-0.196-0.25-0.394-0.497-0.592-0.745c-0.408-0.511-0.821-1.015-1.239-1.514c-0.205-0.244-0.409-0.489-0.617-0.731
		c-0.498-0.58-1.004-1.15-1.516-1.713c-0.119-0.13-0.234-0.265-0.354-0.394c-0.624-0.676-1.259-1.337-1.902-1.988
		c-0.202-0.204-0.408-0.403-0.611-0.604c-0.463-0.458-0.929-0.91-1.401-1.355c-0.24-0.226-0.48-0.45-0.722-0.671
		c-0.48-0.441-0.966-0.874-1.456-1.301c-0.21-0.184-0.418-0.371-0.63-0.551c-0.687-0.586-1.382-1.161-2.087-1.721
		c-0.161-0.128-0.325-0.249-0.486-0.375c-0.562-0.439-1.13-0.871-1.703-1.294c-0.259-0.19-0.52-0.377-0.78-0.564
		c-0.503-0.361-1.01-0.715-1.522-1.062c-0.261-0.178-0.522-0.357-0.785-0.531c-0.631-0.418-1.269-0.826-1.912-1.224
		c-0.133-0.082-0.263-0.169-0.396-0.25c-0.765-0.467-1.54-0.918-2.322-1.357c-0.254-0.143-0.511-0.28-0.767-0.42
		c-0.555-0.304-1.114-0.602-1.678-0.892c-0.289-0.149-0.578-0.296-0.87-0.441c-0.587-0.293-1.18-0.577-1.776-0.854
		c-0.24-0.112-0.478-0.228-0.719-0.337c-0.822-0.372-1.651-0.732-2.487-1.076c-0.2-0.082-0.403-0.158-0.603-0.238
		c-0.657-0.263-1.317-0.519-1.983-0.764c-0.298-0.11-0.597-0.216-0.897-0.322c-0.603-0.214-1.21-0.42-1.82-0.619
		c-0.289-0.095-0.577-0.19-0.867-0.282c-0.803-0.251-1.61-0.492-2.425-0.719c-0.084-0.023-0.166-0.049-0.25-0.073
		c-0.893-0.245-1.795-0.471-2.702-0.686c-0.282-0.067-0.566-0.128-0.849-0.191c-0.652-0.147-1.307-0.286-1.965-0.417
		c-0.313-0.062-0.626-0.123-0.94-0.182c-0.704-0.131-1.413-0.252-2.125-0.365c-0.237-0.038-0.472-0.08-0.709-0.116
		c-0.94-0.141-1.885-0.267-2.838-0.376c-0.221-0.025-0.445-0.045-0.667-0.068c-0.745-0.08-1.492-0.151-2.244-0.211
		c-0.321-0.025-0.643-0.048-0.966-0.07c-0.694-0.047-1.392-0.086-2.092-0.117c-0.301-0.013-0.601-0.029-0.903-0.039
		c-0.985-0.033-1.974-0.055-2.971-0.055c-17.33,0-33.138,5.279-48.425,10.386c-14.072,4.699-27.363,9.139-40.767,9.139
		c-0.889,0-1.768-0.025-2.639-0.065c-0.281-0.013-0.557-0.036-0.836-0.053c-0.591-0.037-1.179-0.079-1.762-0.134
		c-0.322-0.031-0.642-0.067-0.962-0.104c-0.54-0.062-1.078-0.131-1.613-0.209c-0.322-0.047-0.643-0.095-0.962-0.148
		c-0.546-0.091-1.088-0.194-1.628-0.302c-0.29-0.058-0.582-0.112-0.871-0.176c-0.657-0.144-1.308-0.305-1.957-0.476
		c-0.163-0.043-0.327-0.078-0.49-0.123c-0.804-0.221-1.602-0.464-2.394-0.726c-0.233-0.077-0.464-0.165-0.696-0.246
		c-0.438-0.152-0.873-0.312-1.308-0.478V1106.727z M990.635,1346.436c6.721,2.447,13.713,3.644,21.232,3.644
		c15.192,0,29.965-4.934,44.251-9.705c14.453-4.828,29.399-9.819,44.941-9.819c27.745,0,50.663,15.071,62.63,40.73h-4.415
		c-13.875-19.005-29.97-28.09-50.446-28.541c-19.765-0.412-41.297,7.345-63.494,16.049c-30.153,11.826-57.752,10.816-72.25,8.976
		C978.483,1362.531,985.362,1355.021,990.635,1346.436z M966.475,1131.515c6.445-5.004,11.965-10.78,16.273-15.918v222.523
		c-0.023,0.041-0.044,0.083-0.067,0.124c-0.505,0.911-1.037,1.811-1.59,2.701c-0.057,0.092-0.113,0.186-0.171,0.278
		c-0.56,0.893-1.142,1.773-1.74,2.641c-0.059,0.085-0.116,0.172-0.176,0.257c-0.605,0.871-1.226,1.726-1.858,2.567
		c-0.057,0.076-0.114,0.154-0.171,0.229c-0.639,0.845-1.289,1.672-1.944,2.481c-0.054,0.067-0.108,0.135-0.162,0.202
		c-0.662,0.813-1.331,1.607-1.999,2.38c-0.048,0.056-0.096,0.113-0.144,0.168c-0.676,0.779-1.351,1.535-2.021,2.267
		c-0.04,0.044-0.081,0.09-0.121,0.133c-0.676,0.737-1.346,1.449-2.006,2.134c-0.033,0.035-0.067,0.07-0.1,0.105
		c-0.666,0.691-1.32,1.353-1.957,1.986c-0.015,0.015-0.031,0.031-0.047,0.047V1131.515z M952.565,1145.925
		c0.058-0.595,0.47-1.137,1.075-1.414c0.597-0.274,1.211-0.535,1.835-0.791v227.467c0,0.053,0.01,0.104,0.011,0.157
		c0.004,0.132,0.015,0.264,0.028,0.397c0.013,0.128,0.028,0.255,0.05,0.381c0.009,0.051,0.01,0.102,0.02,0.154
		c0.015,0.074,0.042,0.143,0.06,0.215c0.031,0.128,0.064,0.254,0.105,0.379c0.039,0.121,0.083,0.237,0.13,0.354
		c0.047,0.118,0.096,0.235,0.151,0.349c0.055,0.115,0.116,0.226,0.179,0.335c0.062,0.109,0.126,0.216,0.195,0.32
		c0.07,0.106,0.146,0.207,0.223,0.307c0.076,0.099,0.154,0.197,0.237,0.291c0.084,0.096,0.173,0.185,0.264,0.274
		c0.089,0.087,0.178,0.173,0.273,0.255c0.099,0.085,0.203,0.164,0.307,0.241c0.098,0.073,0.196,0.144,0.299,0.211
		c0.115,0.074,0.235,0.14,0.355,0.205c0.057,0.031,0.109,0.068,0.166,0.096c-0.832,0.026-1.667,0.049-2.497,0.075
		c-0.85-0.018-1.624-0.61-1.725-1.453c-3.995-33.31-6.021-67.71-6.021-102.245C948.286,1242.835,949.716,1175.185,952.565,1145.925z
		"/>
	<path fill="#F9B52C" d="M1444.534,1197.586c-0.02-12.581-0.05-23.08-0.093-30.45c-0.081-13.833-0.081-13.833-1.717-15.468
		c-0.709-0.75-9.511-10.599-14.893-16.631c-0.003-0.003-0.006-0.006-0.009-0.009c-0.126-0.14-0.259-0.275-0.4-0.403
		c-0.041-0.037-0.085-0.068-0.127-0.104c-0.055-0.047-0.111-0.092-0.167-0.136c-0.163-0.129-0.332-0.249-0.507-0.357
		c-0.035-0.021-0.067-0.046-0.102-0.067c-0.208-0.122-0.424-0.228-0.644-0.321c-0.059-0.025-0.118-0.046-0.177-0.069
		c-0.185-0.071-0.372-0.132-0.563-0.182c-0.051-0.014-0.101-0.03-0.152-0.042c-0.233-0.055-0.47-0.094-0.71-0.118
		c-0.056-0.005-0.113-0.006-0.169-0.01c-0.189-0.013-0.379-0.016-0.57-0.009c-0.074,0.002-0.147,0.004-0.22,0.01
		c-0.04,0.003-0.08,0.002-0.12,0.005l-16.085,1.577c0.776,3.604,1.017,7.258,1.084,10.946l10.037-0.984v256.041l-240.837,10.927h-11
		l-240.837-10.927v-256.041l9.975,0.979c-0.113-3.685,0.201-7.367,0.978-10.957l-15.916-1.561c-0.038-0.004-0.075-0.002-0.113-0.005
		c-0.081-0.006-0.161-0.008-0.242-0.011c-0.18-0.006-0.358-0.003-0.536,0.008c-0.067,0.004-0.133,0.005-0.2,0.012
		c-0.233,0.023-0.463,0.062-0.69,0.115c-0.062,0.015-0.123,0.034-0.185,0.051c-0.178,0.048-0.353,0.105-0.526,0.171
		c-0.067,0.025-0.134,0.05-0.201,0.078c-0.216,0.092-0.428,0.195-0.631,0.314c-0.042,0.024-0.08,0.054-0.121,0.08
		c-0.169,0.106-0.332,0.221-0.49,0.345c-0.058,0.046-0.115,0.092-0.172,0.14c-0.041,0.035-0.085,0.066-0.125,0.102
		c-0.141,0.128-0.274,0.263-0.4,0.403c-0.003,0.004-0.007,0.006-0.01,0.009c-5.382,6.032-14.184,15.881-14.829,16.566
		c-1.7,1.7-1.7,1.7-1.781,15.533c-0.043,7.37-0.073,17.869-0.093,30.45c-0.035,22.25-0.042,53.231-0.021,92.083
		c0.036,66.147,0.144,133.085,0.145,133.753c0,0.08,0.015,0.156,0.018,0.234c0.008,0.172,0.017,0.344,0.04,0.515
		c0.016,0.113,0.041,0.224,0.064,0.335c0.03,0.15,0.062,0.299,0.105,0.447c0.035,0.118,0.077,0.233,0.119,0.348
		c0.032,0.086,0.053,0.175,0.089,0.26c0.021,0.05,0.051,0.095,0.074,0.145c0.051,0.112,0.108,0.22,0.167,0.327
		c0.07,0.13,0.143,0.256,0.223,0.379c0.064,0.099,0.132,0.194,0.203,0.288c0.09,0.12,0.183,0.235,0.281,0.347
		c0.077,0.087,0.156,0.172,0.238,0.254c0.107,0.107,0.218,0.206,0.332,0.303c0.088,0.075,0.176,0.148,0.27,0.217
		c0.124,0.092,0.253,0.175,0.385,0.257c0.095,0.059,0.188,0.119,0.287,0.172c0.149,0.081,0.304,0.148,0.461,0.214
		c0.072,0.031,0.138,0.071,0.213,0.099c0.019,0.007,0.038,0.009,0.057,0.016c0.281,0.102,0.571,0.183,0.869,0.239
		c0.061,0.011,0.123,0.013,0.185,0.022c0.181,0.027,0.361,0.057,0.545,0.066l110.549,5.511v20.659c0,1.731,0.815,3.361,2.2,4.4
		c1.384,1.037,3.179,1.363,4.84,0.88l26.459-7.718c4.008-1.171,8.286,1.118,9.541,5.099c1.033,3.277-0.249,6.888-3.117,8.78
		l-30.969,20.429c-1.826,1.204-2.765,3.376-2.391,5.531l11.253,64.82c0.017,0.098,0.049,0.191,0.071,0.287
		c0.03,0.13,0.057,0.26,0.096,0.389c0.041,0.134,0.094,0.263,0.145,0.393c0.035,0.09,0.06,0.183,0.1,0.271
		c0.011,0.024,0.026,0.045,0.038,0.069c0.062,0.13,0.135,0.253,0.206,0.377c0.059,0.103,0.113,0.209,0.178,0.307
		c0.076,0.115,0.163,0.221,0.248,0.33c0.075,0.096,0.145,0.196,0.225,0.287c0.089,0.1,0.189,0.19,0.286,0.285
		c0.088,0.086,0.171,0.175,0.264,0.254c0.103,0.087,0.215,0.162,0.324,0.242c0.099,0.072,0.193,0.149,0.297,0.214
		c0.111,0.07,0.23,0.127,0.346,0.189c0.112,0.061,0.221,0.126,0.338,0.178c0.112,0.051,0.231,0.087,0.347,0.13
		c0.13,0.048,0.257,0.101,0.39,0.14c0.015,0.004,0.028,0.011,0.042,0.015c0.134,0.037,0.269,0.057,0.404,0.083
		c0.102,0.02,0.202,0.049,0.306,0.063c0.256,0.036,0.512,0.056,0.767,0.056h28.053c1.579,0,3.082-0.679,4.126-1.863l101.331-114.952
		l101.331,114.952c1.044,1.184,2.547,1.863,4.126,1.863h28.053c0.255,0,0.511-0.02,0.767-0.056c0.104-0.015,0.204-0.043,0.306-0.063
		c0.135-0.026,0.27-0.046,0.404-0.083c0.015-0.004,0.028-0.011,0.042-0.015c0.133-0.039,0.26-0.091,0.39-0.14
		c0.116-0.043,0.235-0.08,0.347-0.13c0.116-0.052,0.225-0.118,0.338-0.178c0.116-0.062,0.235-0.119,0.346-0.189
		c0.103-0.065,0.198-0.143,0.297-0.214c0.109-0.08,0.221-0.155,0.324-0.242c0.093-0.079,0.177-0.169,0.264-0.254
		c0.097-0.094,0.196-0.184,0.286-0.285c0.08-0.091,0.15-0.191,0.225-0.287c0.084-0.109,0.172-0.214,0.248-0.33
		c0.065-0.098,0.119-0.204,0.178-0.307c0.071-0.124,0.145-0.247,0.206-0.377c0.011-0.024,0.027-0.045,0.038-0.069
		c0.04-0.089,0.065-0.181,0.1-0.271c0.051-0.13,0.104-0.258,0.146-0.393c0.039-0.128,0.067-0.258,0.096-0.389
		c0.022-0.096,0.054-0.189,0.071-0.287l11.253-64.82c0.374-2.155-0.564-4.327-2.391-5.531l-30.969-20.429
		c-2.869-1.893-4.15-5.503-3.118-8.78c1.254-3.979,5.533-6.266,9.541-5.099l26.459,7.718c1.663,0.483,3.455,0.157,4.84-0.88
		c1.385-1.039,2.2-2.669,2.2-4.4v-20.659l110.549-5.511c0.185-0.009,0.365-0.039,0.546-0.066c0.062-0.009,0.123-0.011,0.184-0.022
		c0.299-0.055,0.588-0.137,0.87-0.239c0.019-0.007,0.038-0.009,0.057-0.016c0.074-0.028,0.14-0.068,0.213-0.099
		c0.156-0.066,0.311-0.134,0.46-0.214c0.099-0.053,0.192-0.113,0.287-0.172c0.131-0.082,0.261-0.165,0.385-0.257
		c0.093-0.069,0.181-0.143,0.27-0.217c0.115-0.097,0.225-0.197,0.332-0.303c0.083-0.082,0.161-0.167,0.238-0.254
		c0.099-0.112,0.192-0.227,0.281-0.347c0.071-0.094,0.139-0.189,0.203-0.288c0.08-0.122,0.153-0.249,0.223-0.379
		c0.059-0.107,0.116-0.215,0.167-0.327c0.023-0.049,0.052-0.094,0.074-0.145c0.036-0.085,0.057-0.173,0.089-0.26
		c0.042-0.115,0.085-0.23,0.119-0.348c0.043-0.148,0.075-0.297,0.105-0.447c0.023-0.111,0.048-0.221,0.064-0.334
		c0.024-0.172,0.033-0.344,0.041-0.517c0.003-0.078,0.018-0.154,0.018-0.233c0.001-0.668,0.109-67.606,0.145-133.753
		C1444.576,1250.817,1444.569,1219.836,1444.534,1197.586z M914.552,1403.994l-4.205,4.806
		c-0.113-76.685-0.264-232.468,0.075-251.09c1.014-1.123,2.457-2.732,4.129-4.6V1403.994z M1033.162,1494.144l27.963-18.445
		c6.948-4.584,10.053-13.33,7.551-21.268c-3.039-9.642-13.41-15.183-23.112-12.353l-19.419,5.665v-12.708l104.839,6.49
		l-89.163,102.497L1033.162,1494.144z M1063.949,1550.857h-13.495l94.501-108.633h14.754L1063.949,1550.857z M1166.39,1430.943
		l-249.9-12.458l5.958-6.81l243.942,11.067V1430.943z M1279.83,1550.857l-95.76-108.633h14.753l94.502,108.633H1279.83z
		 M1317.634,1447.743l-19.419-5.665c-9.707-2.83-20.073,2.71-23.112,12.353c-2.502,7.939,0.603,16.685,7.552,21.268l27.962,18.445
		l-8.659,49.878l-89.164-102.497l104.839-6.49V1447.743z M1177.39,1430.943v-8.2l243.942-11.067l5.958,6.81L1177.39,1430.943z
		 M1433.432,1408.8l-4.205-4.806V1153.11c1.673,1.868,3.115,3.476,4.129,4.6C1433.696,1176.332,1433.544,1332.115,1433.432,1408.8z"
		/>
	<g>
		<path fill="#F9B52C" d="M1011.867,1140.423c14.786,0,28.713-4.651,43.459-9.577c14.643-4.891,29.784-9.947,45.732-9.947
			c16.328,0,31.373,5.057,43.508,14.623c1.3,1.024,3.188,0.802,4.213-0.499c1.026-1.302,0.802-3.188-0.499-4.214
			c-13.205-10.408-29.534-15.91-47.223-15.91c-16.923,0-32.535,5.214-47.633,10.257c-14.27,4.766-27.749,9.268-41.559,9.268
			c-1.657,0-3,1.343-3,3C1008.867,1139.08,1010.21,1140.423,1011.867,1140.423z"/>
		<path fill="#F9B52C" d="M1053.425,1159.281c-14.27,4.766-27.749,9.267-41.559,9.267c-1.657,0-3,1.343-3,3c0,1.657,1.343,3,3,3
			c14.786,0,28.713-4.651,43.459-9.577c14.643-4.891,29.784-9.947,45.732-9.947c16.328,0,31.373,5.056,43.509,14.622
			c1.299,1.024,3.187,0.802,4.213-0.499c1.026-1.302,0.802-3.188-0.499-4.214c-13.205-10.408-29.534-15.909-47.223-15.909
			C1084.135,1149.024,1068.523,1154.238,1053.425,1159.281z"/>
		<path fill="#F9B52C" d="M1148.281,1199.059c-13.205-10.408-29.534-15.909-47.223-15.909c-16.923,0-32.535,5.214-47.633,10.257
			c-14.27,4.766-27.749,9.268-41.559,9.268c-1.657,0-3,1.343-3,3c0,1.657,1.343,3,3,3c14.786,0,28.713-4.651,43.459-9.577
			c14.643-4.891,29.784-9.947,45.732-9.947c16.328,0,31.373,5.056,43.509,14.622c1.299,1.024,3.187,0.802,4.213-0.499
			C1149.806,1201.972,1149.583,1200.086,1148.281,1199.059z"/>
		<path fill="#F9B52C" d="M1148.281,1233.185c-13.205-10.408-29.534-15.909-47.223-15.909c-16.923,0-32.535,5.214-47.633,10.257
			c-14.27,4.766-27.749,9.268-41.559,9.268c-1.657,0-3,1.343-3,3c0,1.657,1.343,3,3,3c14.786,0,28.713-4.651,43.459-9.577
			c14.643-4.891,29.784-9.947,45.732-9.947c16.328,0,31.373,5.056,43.509,14.622c1.299,1.023,3.187,0.802,4.213-0.499
			C1149.806,1236.098,1149.583,1234.212,1148.281,1233.185z"/>
		<path fill="#F9B52C" d="M1148.281,1267.311c-13.205-10.408-29.534-15.909-47.223-15.909c-16.923,0-32.535,5.214-47.633,10.257
			c-14.27,4.766-27.749,9.268-41.559,9.268c-1.657,0-3,1.343-3,3c0,1.657,1.343,3,3,3c14.786,0,28.713-4.651,43.459-9.577
			c14.643-4.891,29.784-9.947,45.732-9.947c16.328,0,31.373,5.056,43.509,14.622c1.299,1.024,3.187,0.802,4.213-0.499
			C1149.806,1270.223,1149.583,1268.338,1148.281,1267.311z"/>
		<path fill="#F9B52C" d="M1148.281,1301.437c-13.205-10.408-29.534-15.909-47.223-15.909c-16.923,0-32.535,5.214-47.633,10.256
			c-14.27,4.766-27.749,9.268-41.559,9.268c-1.657,0-3,1.343-3,3c0,1.657,1.343,3,3,3c14.786,0,28.713-4.651,43.459-9.576
			c14.643-4.891,29.784-9.947,45.732-9.947c16.328,0,31.373,5.056,43.509,14.622c1.299,1.024,3.187,0.802,4.213-0.499
			C1149.806,1304.349,1149.583,1302.464,1148.281,1301.437z"/>
		<path fill="#F9B52C" d="M1198.289,1135.521c12.135-9.566,27.18-14.623,43.508-14.623c15.948,0,31.089,5.057,45.732,9.947
			c14.746,4.926,28.674,9.577,43.459,9.577c1.657,0,3-1.343,3-3c0-1.657-1.343-3-3-3c-13.81,0-27.289-4.502-41.559-9.268
			c-15.098-5.043-30.71-10.257-47.633-10.257c-17.689,0-34.019,5.502-47.223,15.91c-1.301,1.026-1.524,2.912-0.499,4.214
			C1195.101,1136.323,1196.987,1136.546,1198.289,1135.521z"/>
		<path fill="#F9B52C" d="M1194.574,1164.933c-1.301,1.026-1.525,2.912-0.499,4.214c1.025,1.3,2.912,1.523,4.213,0.499
			c12.136-9.566,27.181-14.622,43.509-14.622c15.948,0,31.089,5.057,45.732,9.947c14.746,4.926,28.674,9.577,43.459,9.577
			c1.657,0,3-1.343,3-3c0-1.657-1.343-3-3-3c-13.81,0-27.289-4.502-41.559-9.267c-15.098-5.043-30.71-10.257-47.633-10.257
			C1224.108,1149.024,1207.779,1154.525,1194.574,1164.933z"/>
		<path fill="#F9B52C" d="M1330.989,1202.675c-13.81,0-27.289-4.502-41.559-9.268c-15.098-5.043-30.71-10.257-47.633-10.257
			c-17.689,0-34.018,5.501-47.223,15.909c-1.301,1.026-1.525,2.912-0.499,4.214c1.025,1.3,2.912,1.523,4.213,0.499
			c12.136-9.566,27.181-14.622,43.509-14.622c15.948,0,31.089,5.057,45.732,9.947c14.746,4.926,28.674,9.577,43.459,9.577
			c1.657,0,3-1.343,3-3C1333.989,1204.017,1332.646,1202.675,1330.989,1202.675z"/>
		<path fill="#F9B52C" d="M1330.989,1236.801c-13.81,0-27.289-4.502-41.559-9.268c-15.098-5.043-30.71-10.257-47.633-10.257
			c-17.689,0-34.018,5.501-47.223,15.909c-1.301,1.026-1.525,2.912-0.499,4.214c1.025,1.301,2.912,1.524,4.213,0.499
			c12.136-9.567,27.181-14.622,43.509-14.622c15.948,0,31.089,5.057,45.732,9.947c14.746,4.926,28.674,9.577,43.459,9.577
			c1.657,0,3-1.343,3-3C1333.989,1238.143,1332.646,1236.801,1330.989,1236.801z"/>
		<path fill="#F9B52C" d="M1330.989,1270.927c-13.81,0-27.289-4.502-41.559-9.268c-15.098-5.043-30.71-10.257-47.633-10.257
			c-17.689,0-34.018,5.501-47.223,15.909c-1.301,1.026-1.525,2.912-0.499,4.214c1.025,1.301,2.912,1.523,4.213,0.499
			c12.136-9.566,27.181-14.622,43.509-14.622c15.948,0,31.089,5.057,45.732,9.947c14.746,4.926,28.674,9.577,43.459,9.577
			c1.657,0,3-1.343,3-3C1333.989,1272.269,1332.646,1270.927,1330.989,1270.927z"/>
		<path fill="#F9B52C" d="M1330.989,1305.052c-13.81,0-27.289-4.502-41.559-9.268c-15.098-5.042-30.71-10.256-47.633-10.256
			c-17.689,0-34.018,5.501-47.223,15.909c-1.301,1.026-1.525,2.912-0.499,4.214c1.025,1.301,2.912,1.523,4.213,0.499
			c12.136-9.566,27.181-14.622,43.509-14.622c15.948,0,31.089,5.057,45.732,9.947c14.746,4.925,28.674,9.576,43.459,9.576
			c1.657,0,3-1.343,3-3C1333.989,1306.394,1332.646,1305.052,1330.989,1305.052z"/>
	</g>
	<g>
		<path fill="#027878" d="M1771.532,480.663c13.933,1.276,27.562,4.629,40.436,10.132c9.562,4.087,17.6,9.165,25.731,15.5
			c0.397,0.31,1.094,0.793,1.954,1.395v-15.8c-0.544-0.544-1.058-1.058-1.521-1.534c-6.38-6.568-13.393-12.36-21.024-17.424
			c-15.376-10.205-32.467-15.782-50.972-15.803c-21.407-0.024-48.62,3.235-65.23-12.449l-7.852,19.83
			c11.152,8.659,24.694,12.455,38.819,13.889C1745.057,479.74,1758.34,479.455,1771.532,480.663z"/>
		<path fill="#027878" d="M1839.654,526.049v-13.098c-0.624-0.513-1.249-1.026-1.878-1.531c-3.588-2.882-7.252-5.684-10.997-8.359
			c-21.631-15.456-49.332-18.5-75.046-19.477c-21.25-0.807-42.947-2.411-60.204-15.216l-7.779,19.646
			c16.085,10.447,39.719,12.929,80.332,13.965C1795.312,502.775,1823.794,516.637,1839.654,526.049z"/>
		<path fill="#027878" d="M1764.987,453.133c12.949-0.057,25.591,2.159,37.553,7.232c13.081,5.548,25.345,14.25,35.469,24.189
			c0.51,0.501,1.063,1.031,1.645,1.588v-17.078c-0.495-0.601-0.947-1.135-1.297-1.561c-3.075-3.745-6.493-7.209-9.991-10.557
			c-9.442-9.035-20.335-15.897-33.224-18.688c-16.971-3.675-34.274-2.258-51.456-3.006c-7.413-0.323-14.703-1.612-21.18-5.401
			c-4.39-2.568-8.222-5.948-12.039-9.315l-7.967,20.121c7.809,8.035,19.087,11.143,30.239,12.177
			C1743.468,453.828,1754.238,453.18,1764.987,453.133z"/>
		<path fill="#027878" d="M1758.587,431.315c16.467,0.081,34.426,0.336,49.779,6.985c10.994,4.761,20.157,12.69,28.32,21.315
			c0.851,0.899,1.879,1.953,2.968,3.119v-15.914c-2.219-5.147-13.631-26.573-49.767-26.573c-40.013,0-55.828-8.186-71.282-20.261
			l-6.576,16.608c5.501,4.832,10.975,9.903,17.955,12.384C1739.073,432.208,1749.112,431.269,1758.587,431.315z"/>
		<path fill="#027878" d="M1939.186,480.663c-13.933,1.276-27.562,4.629-40.436,10.132c-9.562,4.087-17.6,9.165-25.731,15.5
			c-0.397,0.31-1.094,0.793-1.954,1.395v-15.8c0.544-0.544,1.058-1.058,1.521-1.534c6.38-6.568,13.392-12.36,21.024-17.424
			c15.376-10.205,32.467-15.782,50.972-15.803c21.407-0.024,48.62,3.235,65.23-12.449l7.852,19.83
			c-11.152,8.659-24.694,12.455-38.819,13.889C1965.661,479.74,1952.378,479.455,1939.186,480.663z"/>
		<path fill="#027878" d="M1871.065,526.049v-13.098c0.624-0.513,1.249-1.026,1.878-1.531c3.588-2.882,7.252-5.684,10.996-8.359
			c21.631-15.456,49.332-18.5,75.046-19.477c21.25-0.807,42.947-2.411,60.204-15.216l7.779,19.646
			c-16.085,10.447-39.719,12.929-80.331,13.965C1915.406,502.775,1886.924,516.637,1871.065,526.049z"/>
		<path fill="#027878" d="M1945.731,453.133c-12.949-0.057-25.591,2.159-37.553,7.232c-13.081,5.548-25.344,14.25-35.469,24.189
			c-0.51,0.501-1.064,1.031-1.645,1.588v-17.078c0.495-0.601,0.947-1.135,1.296-1.561c3.075-3.745,6.493-7.209,9.991-10.557
			c9.442-9.035,20.335-15.897,33.224-18.688c16.971-3.675,34.274-2.258,51.456-3.006c7.413-0.323,14.703-1.612,21.18-5.401
			c4.39-2.568,8.222-5.948,12.039-9.315l7.967,20.121c-7.809,8.035-19.087,11.143-30.24,12.177
			C1967.25,453.828,1956.48,453.18,1945.731,453.133z"/>
		<path fill="#027878" d="M1952.131,431.315c-16.467,0.081-34.426,0.336-49.779,6.985c-10.994,4.761-20.157,12.69-28.32,21.315
			c-0.851,0.899-1.879,1.953-2.968,3.119v-15.914c2.219-5.147,13.631-26.573,49.767-26.573c40.013,0,55.828-8.186,71.282-20.261
			l6.576,16.608c-5.501,4.832-10.975,9.903-17.955,12.384C1971.646,432.208,1961.606,431.269,1952.131,431.315z"/>
		<path fill="#F9B52C" d="M2109.897,516.675c-65.812-150.909-53.174-130.372-63.365-134.421c-3.604-1.017-3.992-0.749-7.13,0.938
			c-1.112-2.359-1.25-3.359-2.354-4.493c0,0-12.953-4.594-17.325-5.435c-11.789-3.147-11.95-3.443-13.861-2.952
			c-0.848,0.226-1.577,0.628-2.12,1.078c-6.195,5.131-12.43,10.376-19.123,14.563l-30.734,11.109
			c-8.694,1.431-19.124,2.188-32.19,2.188c-29.683,0-47.475,11.169-57.173,20.539c-3.99,3.855-6.977,7.73-9.162,11.097
			c-2.185-3.366-5.172-7.241-9.162-11.097c-9.698-9.37-27.49-20.539-57.173-20.539c-13.067,0-23.496-0.757-32.19-2.188
			l-30.734-11.109c-16.944-10.601-18.213-16.852-24.051-15.642l-11.054,2.952c-4.371,0.841-17.325,5.435-17.325,5.435
			c-1.104,1.133-1.261,2.174-2.354,4.493c-3.145-1.69-3.531-1.953-7.13-0.938l-3.863,1.131c-3.641,1.064-2.718,1.754-18.698,38.422
			c-24.156,57.101-40.083,93.027-40.876,95.071c-1.147,2.932,0.473,6.192,3.144,7.132l226.016,86.622
			c0.628,0.241,1.295,0.364,1.968,0.364h17.92c0,0,2.765-0.064,5.562-0.095c2.797,0.031,5.562,0.095,5.562,0.095h17.92
			c0.673,0,1.34-0.123,1.968-0.364l226.016-86.622C2109.135,523.201,2111.199,520.431,2109.897,516.675z M1644.526,472.035
			c6.013-13.77,23.533-53.895,37.059-84.872l12.747-3.404l-42.206,106.592l-17.922,5.322L1644.526,472.035z M1849.797,596.198
			h-14.037c-20.34-52.69-95.27-46.073-132.731-57.226c-24.023-7.115-45.223-18.919-66.021-32.657l18.068-5.366
			c21.625,16.497,51.28,20.124,104.039,21.47c42.282,1.079,81.209,26.227,90.682,32.8V596.198z M1849.798,541.976
			c-21.282-13.534-37.913-19.097-40.82-20.366c-24.518-9.06-38.759-9.645-64.927-10.679c-26.62-1.068-59.705-2.363-81.158-17.892
			l42.907-108.365c18.547,15.079,35.301,25.576,83.224,25.576c45.541,0,58.771,28.382,60.773,33.463V541.976z M1860.921,443.714
			c2.002-5.081,15.232-33.463,60.774-33.463c47.923,0,64.677-10.497,83.224-25.576l42.907,108.365
			c-18.077,13.085-46.153,16.47-68.547,17.277c-46.03,2.759-71.068,1.587-118.358,31.659V443.714z M2071.353,507.857
			c-62.494,40.764-85.104,32.957-131.414,42.989c-28.806,6.281-54.308,17.705-64.98,45.352h-14.038v-40.979
			c9.473-6.572,48.4-31.721,90.682-32.8c52.759-1.346,82.414-4.973,104.039-21.47l18.068,5.366
			C2072.967,506.806,2072.172,507.326,2071.353,507.857z M2058.592,490.35l-42.206-106.592l12.747,3.404
			c3.972,9.096,33.466,76.644,37.059,84.872l10.322,23.638L2058.592,490.35z"/>
		<path fill="#C12428" d="M2179.944,555.08c-0.018-0.219-0.047-0.436-0.091-0.65c-0.018-0.087-0.037-0.172-0.059-0.259
			c-0.059-0.235-0.133-0.465-0.223-0.69c-0.014-0.035-0.02-0.071-0.034-0.106l-75.936-179.36c-0.172-0.406-0.393-0.791-0.657-1.145
			l-15.006-20.108c-0.075-0.1-0.166-0.18-0.246-0.274c-0.108-0.125-0.213-0.252-0.331-0.367c-0.139-0.136-0.289-0.254-0.44-0.374
			c-0.111-0.087-0.218-0.179-0.335-0.258c-0.178-0.119-0.366-0.217-0.555-0.314c-0.108-0.056-0.212-0.118-0.323-0.166
			c-0.209-0.09-0.425-0.155-0.642-0.218c-0.106-0.031-0.207-0.072-0.315-0.097c-0.245-0.056-0.494-0.082-0.744-0.104
			c-0.087-0.008-0.171-0.028-0.259-0.032c-0.341-0.014-0.684,0.003-1.025,0.053c-0.03,0.004-0.059,0.017-0.089,0.021
			c-0.31,0.051-0.617,0.127-0.919,0.233c-0.017,0.006-0.035,0.007-0.052,0.013l-47.309,17.1c3.311,2.481,6.879,5.341,9.823,8.145
			l36.222-13.093l68.346,171.065l-287.821,94.42h-11.123l-287.821-94.42l68.346-171.065l36.222,13.093
			c2.944-2.805,6.512-5.664,9.823-8.145l-47.309-17.1c-0.017-0.006-0.035-0.007-0.052-0.013c-0.302-0.106-0.609-0.181-0.919-0.233
			c-0.03-0.005-0.059-0.017-0.089-0.021c-0.341-0.05-0.684-0.067-1.026-0.053c-0.088,0.003-0.172,0.024-0.259,0.032
			c-0.25,0.022-0.5,0.049-0.744,0.104c-0.108,0.024-0.209,0.065-0.315,0.097c-0.218,0.063-0.433,0.128-0.642,0.218
			c-0.112,0.048-0.215,0.111-0.323,0.166c-0.189,0.097-0.377,0.195-0.555,0.314c-0.117,0.079-0.224,0.17-0.335,0.258
			c-0.151,0.119-0.301,0.237-0.441,0.374c-0.118,0.115-0.223,0.242-0.331,0.367c-0.08,0.094-0.172,0.174-0.246,0.274l-15.006,20.108
			c-0.264,0.354-0.485,0.738-0.657,1.145l-75.936,179.36c-0.015,0.035-0.021,0.071-0.034,0.106c-0.09,0.225-0.164,0.456-0.223,0.69
			c-0.022,0.086-0.041,0.172-0.059,0.259c-0.043,0.215-0.073,0.431-0.091,0.65c-0.005,0.066-0.016,0.132-0.019,0.199
			c-0.012,0.275-0.003,0.552,0.027,0.829c0.008,0.072,0.024,0.141,0.034,0.212c0.021,0.14,0.036,0.281,0.068,0.421
			c0.016,0.068,0.041,0.133,0.059,0.2c0.023,0.087,0.049,0.173,0.077,0.26c0.065,0.2,0.141,0.395,0.227,0.585
			c0.03,0.067,0.056,0.135,0.089,0.201c0.125,0.249,0.266,0.487,0.426,0.712c0.035,0.049,0.076,0.093,0.112,0.141
			c0.137,0.179,0.283,0.35,0.44,0.511c0.061,0.062,0.123,0.123,0.187,0.182c0.175,0.164,0.361,0.316,0.557,0.456
			c0.032,0.023,0.057,0.051,0.089,0.073c0.01,0.007,0.022,0.011,0.032,0.019c0.215,0.145,0.44,0.275,0.676,0.389
			c0.059,0.028,0.12,0.048,0.179,0.074c0.149,0.066,0.296,0.134,0.452,0.186l142.223,48.062l-57.323,131.915
			c-0.029,0.067-0.044,0.138-0.07,0.206c-0.057,0.148-0.108,0.297-0.153,0.449c-0.039,0.134-0.074,0.267-0.102,0.402
			c-0.031,0.148-0.055,0.298-0.074,0.449c-0.018,0.14-0.033,0.279-0.039,0.419c-0.007,0.149-0.005,0.298-0.001,0.448
			c0.005,0.143,0.012,0.284,0.027,0.425c0.016,0.146,0.042,0.29,0.07,0.436c0.028,0.145,0.059,0.289,0.099,0.432
			c0.017,0.061,0.023,0.122,0.042,0.182c0.026,0.081,0.066,0.154,0.095,0.233c0.051,0.14,0.105,0.277,0.167,0.412
			c0.062,0.135,0.131,0.266,0.204,0.394c0.07,0.125,0.142,0.247,0.222,0.366c0.086,0.127,0.178,0.248,0.273,0.367
			c0.086,0.108,0.174,0.214,0.269,0.316c0.11,0.118,0.227,0.227,0.346,0.334c0.066,0.059,0.121,0.126,0.19,0.183
			c0.035,0.028,0.075,0.047,0.11,0.075c0.148,0.115,0.304,0.216,0.463,0.315c0.101,0.063,0.198,0.131,0.302,0.188
			c0.169,0.091,0.347,0.164,0.526,0.237c0.1,0.042,0.197,0.091,0.299,0.126c0.207,0.071,0.422,0.119,0.638,0.165
			c0.079,0.017,0.155,0.044,0.235,0.058c0.296,0.049,0.598,0.076,0.905,0.076h41.708c0.983,0,1.949-0.264,2.796-0.764l153.27-90.489
			h33.093c0.021,0,0.041-0.003,0.062-0.003c0.021,0,0.041,0.003,0.062,0.003h33.093l153.27,90.489
			c0.847,0.5,1.813,0.764,2.796,0.764h41.708c0.307,0,0.61-0.027,0.906-0.076c0.079-0.014,0.156-0.041,0.235-0.058
			c0.216-0.046,0.431-0.094,0.638-0.165c0.102-0.035,0.199-0.085,0.3-0.126c0.179-0.073,0.357-0.146,0.526-0.237
			c0.104-0.056,0.201-0.125,0.302-0.188c0.159-0.099,0.315-0.2,0.463-0.315c0.036-0.028,0.075-0.047,0.11-0.075
			c0.069-0.057,0.124-0.124,0.19-0.183c0.119-0.107,0.236-0.216,0.346-0.334c0.095-0.102,0.182-0.208,0.269-0.316
			c0.095-0.119,0.188-0.24,0.273-0.367c0.08-0.119,0.152-0.241,0.222-0.366c0.073-0.128,0.141-0.259,0.204-0.394
			c0.062-0.135,0.116-0.272,0.167-0.412c0.029-0.079,0.069-0.152,0.095-0.233c0.019-0.06,0.025-0.121,0.042-0.182
			c0.04-0.143,0.071-0.286,0.099-0.432c0.028-0.146,0.053-0.29,0.07-0.436c0.016-0.142,0.023-0.283,0.028-0.425
			c0.005-0.15,0.007-0.299,0-0.448c-0.007-0.14-0.022-0.279-0.039-0.419c-0.019-0.151-0.042-0.3-0.074-0.449
			c-0.028-0.135-0.063-0.268-0.102-0.402c-0.044-0.152-0.095-0.301-0.153-0.449c-0.026-0.068-0.041-0.138-0.07-0.206
			l-57.323-131.915l142.224-48.062c0.156-0.053,0.303-0.121,0.452-0.186c0.059-0.026,0.12-0.045,0.179-0.074
			c0.236-0.114,0.461-0.245,0.676-0.389c0.01-0.007,0.022-0.012,0.032-0.019c0.032-0.022,0.057-0.05,0.089-0.073
			c0.196-0.14,0.382-0.292,0.557-0.456c0.064-0.06,0.126-0.12,0.187-0.182c0.157-0.161,0.303-0.332,0.44-0.511
			c0.036-0.048,0.077-0.092,0.112-0.141c0.16-0.225,0.301-0.463,0.426-0.712c0.033-0.065,0.059-0.134,0.089-0.201
			c0.086-0.19,0.162-0.385,0.227-0.585c0.028-0.086,0.054-0.172,0.077-0.26c0.018-0.067,0.044-0.132,0.059-0.2
			c0.032-0.14,0.047-0.281,0.068-0.421c0.01-0.071,0.026-0.141,0.034-0.212c0.03-0.277,0.039-0.554,0.027-0.829
			C2179.961,555.212,2179.95,555.146,2179.944,555.08z M1687.182,612.293l77.614,25.602l-127.552,89.317L1687.182,612.293z
			 M1849.798,646.146h-28.15l-42.871-15.221c-0.019-0.007-0.039-0.01-0.058-0.017c-0.021-0.007-0.039-0.018-0.059-0.024
			l-92.798-30.611c0,0,0,0,0,0l-139.351-47.092l9.643-9.42l293.645,96.331V646.146z M2073.475,727.213l-127.552-89.317
			l77.614-25.602L2073.475,727.213z M2024.858,600.273L2024.858,600.273l-92.799,30.611c-0.02,0.007-0.039,0.017-0.059,0.024
			c-0.019,0.006-0.039,0.01-0.058,0.017l-42.871,15.221h-28.15v-6.054l293.646-96.331l9.643,9.42L2024.858,600.273z"/>
	</g>
	<g>
		<path fill="#027878" d="M804.778,1293.264c-0.01-0.133-0.031-0.264-0.05-0.396c-0.007-0.045-0.009-0.089-0.017-0.133
			c-0.037-0.215-0.089-0.426-0.151-0.634c-0.018-0.062-0.042-0.121-0.062-0.182c-0.051-0.151-0.107-0.298-0.171-0.444
			c-0.03-0.069-0.061-0.138-0.094-0.206c-0.076-0.156-0.159-0.307-0.249-0.454c-0.026-0.042-0.048-0.087-0.075-0.129
			c-0.119-0.184-0.251-0.36-0.393-0.529c-0.013-0.016-0.023-0.034-0.037-0.05l-44.968-52.745c0.542-0.578,0.963-1.271,1.216-2.042
			c0.525-1.598,0.29-3.348-0.637-4.75c-4.095-6.195-9.013-13.364-14.338-21.05c0.724-0.348,1.437-0.687,2.178-1.052
			c1.414-0.696,2.461-1.966,2.876-3.486c0.415-1.521,0.157-3.146-0.707-4.464c-13.478-20.547-33.385-47.303-49.641-68.833
			c-0.382-0.843-0.784-1.677-1.174-2.517c-20.487,8.223-47.526,2.125-47.526,2.125c-6.214-1.246-12.546-2.945-19.062-4.697
			c-12.913-3.471-26.265-7.06-39.616-7.06c-48.394,0-94.223,75.596-127.686,130.793c-3.3,5.443-6.48,10.688-9.514,15.612
			c-3.033-4.924-6.213-10.167-9.513-15.611c-33.463-55.198-79.293-130.794-127.687-130.794c-13.352,0-26.704,3.59-39.616,7.06
			c-6.101,1.64-12.04,3.232-17.872,4.452c0,0-22.079,8.777-47.523-2.244c-0.31,0.261-0.604,0.545-0.856,0.88
			c-16.518,21.854-37.259,49.654-51.151,70.834c-0.864,1.318-1.122,2.943-0.707,4.464c0.415,1.521,1.462,2.79,2.876,3.486
			c0.742,0.365,1.454,0.703,2.178,1.052c-5.325,7.686-10.243,14.855-14.338,21.05c-0.927,1.402-1.162,3.152-0.637,4.75
			c0.254,0.772,0.674,1.465,1.216,2.043l-44.968,52.744c-0.031,0.037-0.055,0.078-0.085,0.115c-0.099,0.123-0.193,0.249-0.281,0.379
			c-0.044,0.065-0.088,0.13-0.129,0.197c-0.088,0.143-0.168,0.292-0.243,0.442c-0.025,0.051-0.055,0.1-0.078,0.152
			c-0.091,0.199-0.168,0.402-0.235,0.611c-0.02,0.063-0.035,0.129-0.053,0.193c-0.042,0.151-0.079,0.303-0.109,0.458
			c-0.015,0.081-0.027,0.161-0.039,0.242c-0.021,0.145-0.035,0.291-0.044,0.439c-0.005,0.08-0.011,0.159-0.013,0.239
			c-0.001,0.034-0.005,0.067-0.005,0.101v14c0,2.764,2.05,5.098,4.791,5.454l90.928,11.822l16.573,2.155l32.016,4.163
			l166.483,21.646l39.646,5.467l39.365-5.431l166.762-21.683l17.147-2.229l14.869-1.933l16.573-2.155l90.929-11.822
			c2.897-0.377,4.994-2.952,4.776-5.865L804.778,1293.264z M175.201,1214.126c32.008,13.422,44.746,7.861,62.999-0.144
			c15.512-6.804,34.816-15.271,76.265-15.271c12.991,0,26.521,5.334,39.852,13.815c-10.858-4.836-21.839-7.626-32.765-7.626
			c-2.594,0-5.186,0.157-7.772,0.482c-40.658,5.096-62.84,14.417-80.663,21.906c-22.387,9.407-35.312,14.835-69.341,3.476
			C167.233,1225.647,171.102,1220.033,175.201,1214.126z M166.322,1243.082c33.743,10.006,49.078,3.582,71.056-5.653
			c17.203-7.229,38.612-16.225,77.77-21.133c12.646-1.584,25.812,1.854,38.806,8.361c-3.915-1.095-7.728-1.689-11.405-1.689
			c-42.123,0-82.431,15.752-114.819,28.409c-20.583,8.044-38.36,14.991-49.721,14.991c-8.205,0-16.456-1.824-24.598-5.43
			L166.322,1243.082z M121.297,1289.453l18.936-22.21l2.025,13.333c0.257,1.695,1.292,3.174,2.796,3.998
			c11.59,6.346,23.535,9.563,35.502,9.563c13.434,0,31.214-6.948,53.725-15.745c31.528-12.321,70.766-27.655,110.816-27.655
			c22.708,0,55.192,34.947,81.293,63.028c4.696,5.053,9.251,9.949,13.607,14.5L121.297,1289.453z M449.164,1321.932
			c-4.665-4.843-9.607-10.155-14.718-15.655c-28.99-31.189-61.848-66.539-89.35-66.539c-42.123,0-82.431,15.752-114.819,28.409
			c-20.583,8.044-38.36,14.991-49.721,14.991c-9.297,0-18.651-2.341-27.841-6.963l-0.586-3.861
			c8.531,3.352,17.199,5.054,25.881,5.054c13.434,0,31.214-6.948,53.725-15.745c31.528-12.321,70.766-27.655,110.815-27.655
			c25.083,0,63.205,38.179,91.041,66.057c5.027,5.034,9.827,9.84,14.286,14.167c0.444,0.579,0.872,1.139,1.288,1.684V1321.932z
			 M449.164,1291.96v4.73c-36.484-50.542-86.565-108.979-134.7-108.979c-43.755,0-65.099,9.361-80.684,16.196
			c-17.861,7.833-28.124,12.338-60.431-2.604c12.772-18.961,30.022-42.168,44.581-61.468c7.241,2.975,14.968,4.428,23.482,4.428
			c13.297,0,26.622-3.582,39.508-7.046c12.786-3.438,24.862-6.684,36.761-6.684c42.199,0,87.984,75.522,118.281,125.496
			c4.656,7.681,9.076,14.968,13.202,21.553V1291.96z M745.987,1230.764c-34.03,11.361-46.955,5.931-69.34-3.476
			c-17.824-7.489-40.006-16.81-80.664-21.906c-13.468-1.692-27.082,1.152-40.507,7.126c13.322-8.469,26.841-13.796,39.823-13.796
			c41.448,0,60.753,8.467,76.265,15.271c18.254,8.004,30.992,13.567,62.999,0.144
			C738.662,1220.034,742.531,1225.648,745.987,1230.764z M756.352,1260.938c-8.143,3.605-16.393,5.43-24.598,5.43
			c-11.361,0-29.137-6.947-49.721-14.991c-32.389-12.657-72.697-28.409-114.819-28.409c-3.675,0-7.484,0.593-11.396,1.686
			c12.992-6.503,26.153-9.94,38.797-8.358c39.158,4.908,60.567,13.904,77.77,21.133c21.979,9.236,37.314,15.66,71.057,5.653
			L756.352,1260.938z M460.164,1294.699v-16.156v-0.263c4.249-6.764,8.818-14.3,13.637-22.249
			c30.296-49.975,76.081-125.496,118.28-125.496c11.898,0,23.975,3.246,36.761,6.684c12.886,3.464,26.21,7.046,39.508,7.046
			c8.514,0,16.24-1.453,23.482-4.428c14.558,19.298,31.806,42.504,44.581,61.468c-32.306,14.94-42.569,10.437-60.431,2.604
			c-15.585-6.835-36.929-16.196-80.683-16.196c-48.326,0-98.615,58.901-135.135,109.58V1294.699z M460.164,1316.444
			c0.549-0.719,1.126-1.474,1.725-2.256c4.458-4.327,9.258-9.132,14.285-14.166c27.835-27.877,65.957-66.055,91.04-66.055
			c40.049,0,79.287,15.334,110.815,27.655c22.51,8.797,40.291,15.745,53.725,15.745c8.681,0,17.35-1.702,25.88-5.054l-0.586,3.861
			c-9.19,4.622-18.544,6.963-27.841,6.963c-11.361,0-29.137-6.947-49.721-14.991c-32.389-12.657-72.697-28.409-114.819-28.409
			c-27.501,0-60.359,35.35-89.349,66.538c-5.268,5.669-10.363,11.149-15.154,16.11V1316.444z M469.767,1328.265
			c4.356-4.55,8.911-9.447,13.608-14.5c26.101-28.08,58.584-63.027,81.292-63.027c40.049,0,79.287,15.334,110.815,27.655
			c22.51,8.797,40.29,15.745,53.725,15.745c11.967,0,23.912-3.218,35.502-9.563c1.505-0.824,2.539-2.303,2.796-3.998l2.025-13.333
			l18.936,22.21L469.767,1328.265z"/>
		<path fill="#C12428" d="M276.693,1063.371c47.736-47.735,111.204-74.024,178.712-74.024c67.508,0,130.976,26.289,178.712,74.024
			c16.905,16.905,31.096,35.794,42.402,56.127c5.915-0.67,11.098-1.924,15.32-3.264c-12.314-23.072-28.1-44.453-47.116-63.469
			c-50.569-50.568-117.803-78.418-189.318-78.418c-71.515,0-138.75,27.85-189.319,78.418c-18.936,18.935-34.664,40.219-46.956,63.18
			c4.147,1.37,9.301,2.69,15.225,3.436C245.651,1099.092,259.821,1080.243,276.693,1063.371z"/>
		<path fill="#F9B52C" d="M559.949,1440.853l-58.172-78.455l-46.371,10.969l-46.314-11.46l-58.451,78.831
			c-19.635-10.386-37.82-23.765-53.973-39.918c-15.536-15.536-28.497-32.956-38.702-51.735l-18.091-2.347
			c11.518,23.676,27.021,45.523,46.187,64.688c45.233,45.233,105.375,70.145,169.344,70.145c63.97,0,124.111-24.911,169.344-70.145
			c19.125-19.125,34.603-40.923,46.113-64.542l-18.097,2.347c-10.193,18.723-23.128,36.093-38.623,51.588
			C597.93,1417.035,579.668,1430.452,559.949,1440.853z"/>
		<path fill="#C12428" d="M634.118,1420.796c-47.736,47.735-111.204,74.024-178.712,74.024c-67.509,0-130.977-26.289-178.712-74.024
			c-22.315-22.315-39.924-48.077-52.37-76.074l-17.229-2.235c13.288,32.883,33.158,63.081,58.993,88.915
			c50.569,50.568,117.804,78.418,189.319,78.418c71.515,0,138.75-27.85,189.318-78.418c25.796-25.796,45.645-55.943,58.933-88.771
			l-17.233,2.235C673.982,1372.808,656.394,1398.519,634.118,1420.796z"/>
		<path fill="#027878" d="M455.406,1017.594c59.963,0,116.337,23.351,158.738,65.751c9.888,9.888,18.711,20.553,26.471,31.829
			c7.284,2.667,14.268,4.052,20.767,4.575c-10.088-16.924-22.336-32.716-36.631-47.011
			c-45.233-45.233-105.375-70.145-169.344-70.145c-63.97,0-124.111,24.911-169.344,70.145
			c-14.319,14.319-26.585,30.139-36.683,47.095c6.397-0.423,13.285-1.676,20.479-4.163c7.841-11.461,16.777-22.292,26.81-32.326
			C339.068,1040.945,395.442,1017.594,455.406,1017.594z"/>
		<polygon fill="#027878" points="464.312,1066.335 456.59,1090.099 431.603,1090.099 451.818,1104.787 444.096,1128.552 
			464.312,1113.865 484.527,1128.552 476.806,1104.787 497.021,1090.099 472.034,1090.099 		"/>
		<path fill="#F9B52C" d="M422.848,1099.364c0-20.891,14.357-38.424,33.741-43.284c-3.81-0.869-7.77-1.343-11.843-1.343
			c-29.299,0-53.05,23.752-53.05,53.05c0,29.299,23.751,53.05,53.05,53.05c17.507,0,33.028-8.484,42.69-21.56
			c-6.008,3.011-12.783,4.715-19.96,4.715C442.828,1143.991,422.848,1124.011,422.848,1099.364z"/>
	</g>
	<polygon fill="#027878" points="1191.843,993.732 1184.121,1017.496 1159.134,1017.496 1179.349,1032.184 1171.627,1055.948 
		1191.843,1041.261 1212.058,1055.948 1204.337,1032.184 1224.552,1017.496 1199.565,1017.496 	"/>
	<path fill="#F9B52C" d="M1150.379,1026.761c0-20.891,14.357-38.424,33.741-43.284c-3.81-0.869-7.77-1.343-11.843-1.343
		c-29.299,0-53.05,23.751-53.05,53.05c0,29.299,23.751,53.05,53.05,53.05c17.507,0,33.028-8.484,42.69-21.561
		c-6.008,3.011-12.783,4.715-19.96,4.715C1170.359,1071.389,1150.379,1051.408,1150.379,1026.761z"/>
	<g>
		<polygon fill="#027878" points="1913.31,1097.504 1908.371,1082.303 1903.432,1097.504 1887.45,1097.504 1900.38,1106.897 
			1895.441,1122.097 1908.371,1112.704 1921.301,1122.097 1916.362,1106.897 1929.292,1097.504 		"/>
		<path fill="#F9B52C" d="M1881.85,1103.428c0-13.361,9.183-24.575,21.581-27.684c-2.437-0.557-4.969-0.859-7.574-0.859
			c-18.74,0-33.931,15.191-33.931,33.931c0,18.739,15.192,33.931,33.931,33.931c11.197,0,21.125-5.426,27.304-13.79
			c-3.843,1.926-8.176,3.016-12.767,3.016C1894.63,1131.972,1881.85,1119.193,1881.85,1103.428z"/>
		<path fill="#F9B52C" d="M1785.851,1127.337c36.039,23.065,61.228,45.332,79.27,70.076c0.688,0.943,1.757,1.443,2.841,1.443
			c0.718,0,1.442-0.22,2.067-0.674c1.567-1.143,1.911-3.34,0.768-4.908c-18.573-25.472-44.362-48.304-81.159-71.854
			c-1.635-1.046-3.806-0.569-4.852,1.065C1783.74,1124.118,1784.217,1126.291,1785.851,1127.337z"/>
		<path fill="#F9B52C" d="M1775.097,1164.371c21.339,9.08,57.735,36.448,87.219,75.079c0.787,1.031,1.978,1.573,3.182,1.573
			c0.846,0,1.699-0.268,2.424-0.82c1.756-1.34,2.093-3.851,0.753-5.606c-21.285-27.89-58.668-64.064-90.445-77.587
			c-2.034-0.866-4.382,0.082-5.247,2.114C1772.118,1161.157,1773.064,1163.505,1775.097,1164.371z"/>
		<path fill="#F9B52C" d="M1767.82,1200.998c29.837,9.945,60.405,33.884,93.452,73.183c0.792,0.941,1.923,1.426,3.063,1.426
			c0.909,0,1.823-0.308,2.572-0.938c1.691-1.422,1.909-3.945,0.487-5.636c-34.024-40.462-65.768-65.198-97.044-75.624
			c-2.097-0.694-4.36,0.434-5.06,2.53C1764.592,1198.034,1765.724,1200.298,1767.82,1200.998z"/>
		<path fill="#F9B52C" d="M1762.212,1227.142c37.863,13.71,67.701,43.502,97.45,75.428c0.788,0.846,1.856,1.273,2.927,1.273
			c0.977,0,1.955-0.355,2.726-1.073c1.616-1.506,1.706-4.037,0.199-5.653c-30.441-32.67-61.04-63.181-100.579-77.496
			c-2.078-0.756-4.372,0.322-5.123,2.399C1759.06,1224.097,1760.135,1226.39,1762.212,1227.142z"/>
		<path fill="#C12428" d="M1895.94,999.329l86.033,86.033c5.361-3.179,10.17-5.702,13.74-7.474l-99.773-99.772l-99.773,99.772
			c3.57,1.771,8.379,4.295,13.74,7.474L1895.94,999.329z"/>
		<path fill="#C12428" d="M1627.265,1285.85l-8.923-8.924l13.266-13.266l15.856-37.068l-50.334,50.334l23.219,23.219
			C1622.533,1295.606,1625.422,1289.647,1627.265,1285.85z"/>
		<polygon fill="#C12428" points="1794.354,1429.269 1895.94,1530.855 1997.526,1429.269 1933.693,1438.971 1949.331,1459.078 
			1931.059,1477.35 1910.192,1442.373 1898.131,1443.625 1921.98,1483.601 1895.94,1509.642 1869.9,1483.601 1893.749,1443.625 
			1881.688,1442.373 1860.821,1477.35 1842.548,1459.078 1858.188,1438.971 		"/>
		<path fill="#F9B52C" d="M1926.759,1197.413c18.042-24.744,43.231-47.011,79.27-70.076c1.634-1.045,2.111-3.218,1.065-4.852
			c-1.046-1.634-3.217-2.111-4.852-1.065c-36.797,23.55-62.586,46.382-81.159,71.854c-1.143,1.568-0.799,3.765,0.768,4.908
			c0.625,0.454,1.349,0.674,2.066,0.674C1925.002,1198.856,1926.071,1198.356,1926.759,1197.413z"/>
		<path fill="#F9B52C" d="M1926.382,1241.023c1.205,0,2.396-0.542,3.183-1.573c29.483-38.631,65.879-65.999,87.219-75.079
			c2.033-0.865,2.979-3.214,2.114-5.247c-0.865-2.032-3.213-2.981-5.247-2.114c-31.777,13.523-69.16,49.697-90.445,77.587
			c-1.34,1.756-1.003,4.267,0.753,5.606C1924.683,1240.755,1925.536,1241.023,1926.382,1241.023z"/>
		<path fill="#F9B52C" d="M1930.609,1274.18c33.046-39.299,63.615-63.237,93.452-73.183c2.096-0.699,3.228-2.964,2.53-5.06
			c-0.7-2.096-2.963-3.225-5.06-2.53c-31.277,10.426-63.021,35.162-97.044,75.624c-1.422,1.69-1.204,4.214,0.487,5.636
			c0.75,0.631,1.663,0.938,2.572,0.938C1928.685,1275.606,1929.817,1275.122,1930.609,1274.18z"/>
		<path fill="#F9B52C" d="M2029.668,1227.142c2.077-0.752,3.151-3.045,2.399-5.122c-0.751-2.077-3.045-3.155-5.123-2.399
			c-39.539,14.315-70.138,44.826-100.579,77.496c-1.506,1.616-1.417,4.147,0.199,5.653c0.771,0.718,1.75,1.073,2.726,1.073
			c1.071,0,2.14-0.428,2.927-1.273C1961.967,1270.644,1991.805,1240.852,2029.668,1227.142z"/>
		<path fill="#027878" d="M2193.152,1368.023c-0.008-0.129-0.018-0.257-0.035-0.384c-0.011-0.084-0.026-0.167-0.041-0.25
			c-0.023-0.126-0.049-0.251-0.08-0.374c-0.021-0.082-0.042-0.162-0.067-0.243c-0.038-0.126-0.082-0.249-0.129-0.372
			c-0.029-0.075-0.056-0.15-0.087-0.223c-0.059-0.136-0.125-0.267-0.195-0.396c-0.024-0.046-0.043-0.094-0.069-0.14l-22.924-40.261
			v-13.145c0-0.042-0.008-0.083-0.009-0.125c-0.004-0.151-0.015-0.303-0.031-0.455c-0.009-0.086-0.016-0.173-0.029-0.259
			c-0.025-0.158-0.06-0.315-0.099-0.473c-0.018-0.073-0.031-0.148-0.051-0.219c-0.004-0.014-0.006-0.026-0.01-0.04
			c-0.626-2.103-1.275-4.22-1.938-6.346l-5.239-15.975c-4.071-11.909-8.556-24.016-13.208-36.046l-14.077-35.29
			c-2-4.907-3.987-9.755-5.935-14.508c-10.979-26.786-21.35-52.087-27.43-71.509c-0.75-2.397-3.035-3.957-5.536-3.85
			c-5.382,0.281-10.971,0.733-16.714,1.341c-4.436-12.109-8.395-23.285-11.404-32.557c-0.781-2.407-3.112-3.98-5.627-3.787
			c-8.208,0.592-17.976,3.121-28.665,7.111c-1.333-5.41-2.649-10.878-3.945-16.455c-0.613-2.637-3.05-4.43-5.753-4.24
			c-6.963,0.502-14.265,2.523-21.722,5.723l-13.983,7.23l-14.128,9.542l-11.763,9.45c-27.591,23.69-52.83,55.856-66.291,79.913
			c-13.46-24.057-38.699-56.224-66.291-79.913l-11.763-9.45l-14.128-9.542l-13.983-7.23c-7.457-3.2-14.759-5.221-21.722-5.723
			c-2.703-0.189-5.14,1.604-5.753,4.24c-1.296,5.577-2.612,11.045-3.945,16.455c-10.688-3.99-20.456-6.519-28.664-7.111
			c-2.515-0.193-4.846,1.38-5.627,3.787c-3.009,9.272-6.968,20.447-11.404,32.557c-5.743-0.607-11.332-1.059-16.714-1.341
			c-2.501-0.107-4.786,1.452-5.536,3.85c-6.079,19.422-16.45,44.723-27.43,71.509c-1.948,4.753-3.934,9.601-5.935,14.508
			l-14.077,35.29c-4.653,12.03-9.137,24.137-13.208,36.046l-5.239,15.975c-0.664,2.126-1.312,4.243-1.938,6.346
			c-0.004,0.014-0.005,0.026-0.009,0.04c-0.021,0.071-0.033,0.146-0.051,0.219c-0.039,0.157-0.075,0.314-0.099,0.473
			c-0.013,0.086-0.02,0.173-0.029,0.259c-0.016,0.152-0.028,0.304-0.031,0.455c-0.001,0.042-0.009,0.083-0.009,0.125v13.145
			l-22.924,40.261c-0.026,0.046-0.044,0.094-0.068,0.14c-0.069,0.13-0.136,0.261-0.195,0.396c-0.032,0.073-0.059,0.148-0.087,0.223
			c-0.047,0.123-0.091,0.246-0.129,0.372c-0.024,0.081-0.046,0.161-0.067,0.243c-0.031,0.123-0.058,0.248-0.08,0.374
			c-0.015,0.083-0.03,0.166-0.041,0.25c-0.017,0.127-0.027,0.255-0.035,0.384c-0.005,0.083-0.012,0.165-0.013,0.247
			c-0.001,0.031-0.005,0.061-0.005,0.093v18.55c0,2.739,2.016,5.062,4.728,5.445l127.146,18.023l24.717,3.504h0l27.58,3.909
			l82.15,12.379l22.389,2.593h8.521h8.521l22.389-2.593l82.15-12.379l27.58-3.909h0l24.717-3.504l127.146-18.023
			c2.712-0.384,4.728-2.706,4.728-5.445v-18.55c0-0.031-0.004-0.062-0.005-0.093
			C2193.164,1368.188,2193.157,1368.106,2193.152,1368.023z M1771.881,1090.125c17.797,3.264,40.58,17.954,64.824,41.916
			c22.297,22.037,43.129,49.724,53.403,70.917v0.744v158.684c-10.744-15.483-28.884-38.951-54.552-63.301
			c-33.148-31.445-67.83-53.284-100.641-63.427c6.621-29.594,13.753-56.255,20.664-82.087
			C1761.302,1132.181,1766.728,1111.897,1771.881,1090.125z M1733.124,1103.584c6.66,0.987,14.297,3.182,22.563,6.327
			c-3.455,13.6-7.031,26.979-10.734,40.818c-7.33,27.401-14.91,55.735-21.893,87.59c-0.626,2.859,1.096,5.708,3.919,6.483
			c53.612,14.694,104.307,60.635,137.544,101.715c-52.206-38.193-131.35-73.673-189.702-82.815
			c6.641-21.291,18.896-53.651,30.783-85.042C1715.792,1151.757,1726.302,1124.002,1733.124,1103.584z M1673.159,1206.673
			c10.325-25.188,20.115-49.074,26.434-68.298c3.047,0.198,6.098,0.443,9.149,0.724c-4.3,11.568-8.892,23.697-13.424,35.664
			c-13.16,34.749-26.767,70.683-32.892,91.963c-0.445,1.544-0.192,3.206,0.692,4.548c0.884,1.342,2.311,2.229,3.905,2.431
			c34.169,4.306,79.07,19.311,123.193,41.167c18.267,9.049,35.318,18.733,50.485,28.584
			c-60.412-25.148-136.898-36.886-195.45-36.886c-3.227,0-6.547,0.018-9.927,0.056
			C1645.606,1273.894,1660.189,1238.316,1673.159,1206.673z M1622.354,1347.612v6.376c0,1.514,0.624,2.961,1.725,4
			c1.101,1.039,2.584,1.579,4.093,1.491c76.479-4.441,153.135,8.521,239.285,40.646l-254.465-36.071L1622.354,1347.612z
			 M1890.543,1421.946l-280.834-39.809v-7.44l280.834,39.809V1421.946z M2163.707,1359.479c1.509,0.088,2.992-0.452,4.093-1.491
			c1.101-1.039,1.725-2.486,1.725-4v-6.376l9.362,16.441l-254.465,36.071C2010.572,1368,2087.228,1355.038,2163.707,1359.479z
			 M2092.288,1138.375c6.319,19.224,16.109,43.109,26.434,68.298c12.97,31.643,27.553,67.221,37.835,99.952
			c-3.38-0.037-6.7-0.056-9.927-0.056c-58.551,0-135.037,11.737-195.45,36.886c15.167-9.851,32.218-19.535,50.485-28.584
			c44.122-21.856,89.024-36.861,123.192-41.167c1.594-0.201,3.021-1.089,3.905-2.431s1.137-3.004,0.692-4.548
			c-6.125-21.28-19.732-57.214-32.892-91.963c-4.531-11.967-9.123-24.096-13.424-35.664
			C2086.19,1138.819,2089.24,1138.574,2092.288,1138.375z M2058.757,1103.584c6.822,20.419,17.332,48.174,27.519,75.075
			c11.888,31.391,24.142,63.751,30.783,85.042c-58.352,9.142-137.496,44.622-189.702,82.815
			c33.238-41.08,83.933-87.021,137.545-101.715c2.823-0.775,4.545-3.623,3.918-6.483c-6.983-31.854-14.562-60.188-21.892-87.59
			c-3.702-13.839-7.278-27.218-10.734-40.818C2044.46,1106.765,2052.096,1104.571,2058.757,1103.584z M1901.772,1203.702v-0.744
			c10.274-21.193,31.105-48.88,53.403-70.917c24.245-23.962,47.027-38.652,64.824-41.916c5.154,21.772,10.58,42.057,16.302,63.446
			c6.91,25.832,14.043,52.493,20.664,82.087c-32.811,10.143-67.492,31.981-100.641,63.427
			c-25.668,24.35-43.808,47.817-54.552,63.301V1203.702z M2182.17,1382.137l-280.834,39.809v-7.44l280.834-39.809V1382.137z"/>
		<path fill="#C12428" d="M1967.667,1094.726l-71.728-71.727l-71.728,71.727c3.991,2.898,7.968,6.075,11.722,9.49l60.006-60.005
			l60.006,60.005C1959.699,1100.801,1963.676,1097.624,1967.667,1094.726z"/>
		<path fill="#C12428" d="M2173.539,1276.926l-8.924,8.924c1.843,3.797,4.731,9.756,6.918,14.295l23.219-23.219l-50.334-50.334
			l15.856,37.068L2173.539,1276.926z"/>
		<polygon fill="#C12428" points="1895.94,1554.525 1766.442,1425.027 1741.427,1421.225 1895.94,1575.738 2050.452,1421.225 
			2025.438,1425.027 		"/>
	</g>
</g>
</svg>
