<?xml version="1.0" standalone="no"?>
<!DOCTYPE svg PUBLIC "-//W3C//DTD SVG 20010904//EN"
 "http://www.w3.org/TR/2001/REC-SVG-20010904/DTD/svg10.dtd">
<svg version="1.0" xmlns="http://www.w3.org/2000/svg"
 width="64.000000pt" height="64.000000pt" viewBox="0 0 64.000000 64.000000"
 preserveAspectRatio="xMidYMid meet">

<g transform="translate(0.000000,64.000000) scale(0.100000,-0.100000)"
fill="#000000" stroke="none">
<path d="M88 624 c-12 -12 -21 -14 -34 -6 -12 7 -25 7 -36 1 -16 -9 -18 -28
-18 -203 l0 -194 83 -35 c82 -36 82 -36 82 -73 0 -51 -23 -56 -28 -7 -2 22 -4
7 -5 -35 l-2 -72 37 15 c20 8 63 27 95 42 l58 26 93 -41 92 -41 3 83 3 83 64
28 65 27 0 193 c0 209 -5 229 -50 205 -17 -9 -25 -8 -40 5 -16 15 -24 14 -101
-12 -69 -23 -88 -34 -104 -60 -11 -18 -22 -32 -25 -32 -3 0 -14 14 -25 32 -15
24 -36 37 -80 53 -94 33 -109 35 -127 18z m162 -44 c10 -5 28 -22 39 -36 19
-24 21 -40 21 -160 l0 -132 -28 28 c-18 18 -56 37 -100 50 l-72 22 0 138 0
138 60 -19 c34 -10 69 -23 80 -29z m340 -132 c0 -79 -4 -128 -10 -128 -6 0
-11 49 -12 123 l-2 122 -6 -115 c-7 -145 -19 -124 -23 40 l-3 125 -2 -132 -2
-131 -72 -22 c-44 -13 -82 -32 -100 -50 l-28 -28 0 132 c0 173 9 187 144 226
l61 18 28 -26 c27 -25 27 -27 27 -154z m-497 -97 c-4 -9 -10 34 -13 99 l-6
115 -2 -122 c-1 -74 -6 -123 -12 -123 -6 0 -10 49 -10 127 0 118 2 128 23 151
l22 24 3 -128 c1 -70 -1 -135 -5 -143z m-48 89 c0 -93 -1 -170 -2 -170 -1 0
-8 3 -17 6 -14 5 -16 30 -16 170 0 150 2 164 18 164 15 0 17 -15 17 -170z
m197 -146 c15 -8 33 -23 41 -35 16 -22 11 -63 -7 -55 -71 29 -203 90 -210 97
-20 18 23 8 95 -21 40 -17 80 -29 89 -28 8 2 -24 18 -72 37 -48 19 -85 37 -83
41 6 10 108 -16 147 -36z m302 37 c3 -4 -33 -23 -79 -41 -73 -28 -85 -36 -85
-56 0 -26 -24 -33 -33 -10 -7 17 17 52 46 68 12 6 49 20 82 29 33 10 61 18 62
18 1 1 4 -3 7 -8z m36 -25 c0 -5 -97 -51 -130 -61 -16 -5 -21 -3 -18 5 7 21
148 74 148 56z m-532 -70 c3 -13 -1 -17 -14 -14 -11 2 -20 11 -22 22 -3 13 1
17 14 14 11 -2 20 -11 22 -22z m359 -18 c-3 -7 -5 -2 -5 12 0 14 2 19 5 13 2
-7 2 -19 0 -25z m-239 -175 c-5 -25 -28 -28 -28 -4 0 12 6 21 16 21 9 0 14 -7
12 -17z"/>
<path d="M140 571 c0 -9 110 -45 116 -38 3 3 -22 14 -55 25 -34 11 -61 17 -61
13z"/>
<path d="M190 489 c30 -11 59 -18 64 -16 13 4 -82 37 -103 36 -9 0 9 -9 39
-20z"/>
<path d="M185 429 c28 -10 57 -18 65 -16 17 3 -75 37 -99 37 -9 -1 7 -10 34
-21z"/>
<path d="M140 386 c0 -2 27 -13 60 -24 33 -12 60 -17 60 -13 0 4 -24 15 -53
24 -56 18 -67 20 -67 13z"/>
<path d="M437 558 c-32 -11 -56 -22 -54 -25 8 -7 117 29 117 39 0 4 -1 8 -2 7
-2 0 -29 -10 -61 -21z"/>
<path d="M420 493 c-25 -9 -40 -18 -35 -20 6 -2 35 5 65 16 30 11 46 20 35 19
-11 0 -40 -7 -65 -15z"/>
<path d="M423 432 c-66 -25 -51 -33 17 -10 33 11 60 22 60 24 0 8 -36 1 -77
-14z"/>
<path d="M428 372 c-27 -8 -48 -19 -48 -23 0 -4 27 1 60 13 57 19 75 29 48 27
-7 0 -34 -8 -60 -17z"/>
</g>
</svg>
