<!-- icon666.com - MILLIONS vector ICONS FREE --><svg xmlns="http://www.w3.org/2000/svg" id="Line_Expand" data-name="Line Expand" viewBox="0 0 64 64"><path d="M62.354,19.22,44.78,1.646a.5.5,0,0,0-.354-.146H19.574a.5.5,0,0,0-.354.146L1.646,19.22a.5.5,0,0,0-.146.353V44.427a.5.5,0,0,0,.146.353L19.22,62.354a.5.5,0,0,0,.354.146H44.426a.5.5,0,0,0,.354-.146L62.354,44.78a.5.5,0,0,0,.146-.353V19.573A.5.5,0,0,0,62.354,19.22Zm-.854.56v9.706L54.637,12.917ZM2.707,32,32,2.707,61.293,32,32,61.293Zm57.869-2.131L34.131,3.424l18.7,7.746ZM44.219,2.5l6.864,6.863L34.514,2.5Zm-24.438,0h9.705L12.917,9.363Zm10.088.924L3.424,29.869l7.745-18.7ZM2.5,19.78l6.863-6.863L2.5,29.486Zm0,24.44V34.514L9.363,51.083Zm.924-10.089L29.869,60.576l-18.7-7.746ZM19.781,61.5l-6.864-6.863L29.486,61.5Zm24.438,0h-9.7l16.569-6.863Zm-10.088-.924L60.576,34.131l-7.745,18.7ZM61.5,44.22l-6.863,6.863L61.5,34.514Z"/></svg>